<?xml version="1.0" encoding="utf-8"?>
<!-- Generator: Adobe Illustrator 24.0.2, SVG Export Plug-In . SVG Version: 6.00 Build 0)  -->
<svg version="1.1" id="Layer_1" xmlns="http://www.w3.org/2000/svg" xmlns:xlink="http://www.w3.org/1999/xlink" x="0px" y="0px"
	 viewBox="0 0 32 32" style="enable-background:new 0 0 32 32;" xml:space="preserve">
<g>
	<g>
		<path d="M30.2,15.76c0,2.76-0.57,5.14-1.7,7.14c-1.13,2-2.75,3.55-4.85,4.64c-2.1,1.09-4.61,1.64-7.52,1.64
			c-3.07,0-5.72-0.6-7.94-1.79C5.95,26.2,4.24,24.5,3.05,22.3c-1.19-2.2-1.79-4.83-1.79-7.88H3.9c0,2.6,0.49,4.84,1.47,6.71
			c0.98,1.87,2.38,3.3,4.2,4.3c1.82,1,4,1.5,6.54,1.5c2.38,0,4.43-0.45,6.14-1.33c1.71-0.89,3.02-2.17,3.94-3.84
			c0.91-1.67,1.37-3.66,1.37-5.97c0-2.14-0.38-3.97-1.15-5.51c-0.77-1.54-1.86-2.71-3.29-3.54c-1.42-0.82-3.15-1.23-5.17-1.23
			c-2.69,0-4.81,0.75-6.34,2.25c-1.53,1.5-2.3,3.59-2.3,6.26c0,2.43,0.62,4.32,1.85,5.69c1.23,1.37,2.93,2.05,5.09,2.05
			c1.91,0,3.41-0.53,4.49-1.58c1.08-1.06,1.62-2.51,1.62-4.35c0-1.58-0.39-2.83-1.19-3.75c-0.79-0.92-1.91-1.38-3.35-1.38
			c-1.2,0-2.14,0.33-2.82,1s-1.02,1.57-1.02,2.7c0,0.96,0.23,1.71,0.68,2.25c0.46,0.55,1.07,0.82,1.85,0.82
			c0.58,0,1.02-0.13,1.32-0.38s0.45-0.61,0.45-1.05c0-0.42-0.12-0.75-0.37-0.98c-0.25-0.23-0.58-0.35-1-0.35
			c-0.62,0-1.14,0.25-1.55,0.75s-0.65,1.21-0.72,2.12l-1.23-0.83c0.18-1.07,0.6-1.9,1.27-2.5c0.67-0.6,1.47-0.9,2.4-0.9
			c0.84,0,1.52,0.24,2.02,0.72s0.75,1.13,0.75,1.95c0,0.89-0.3,1.61-0.9,2.17c-0.6,0.56-1.42,0.83-2.47,0.83
			c-1.31,0-2.36-0.43-3.14-1.3c-0.78-0.87-1.17-2.01-1.17-3.44c0-1.71,0.53-3.07,1.58-4.07c1.06-1,2.47-1.5,4.25-1.5
			c2.07,0,3.69,0.64,4.87,1.92c1.18,1.28,1.77,3.01,1.77,5.19c0,2.47-0.75,4.42-2.25,5.86c-1.5,1.43-3.57,2.15-6.19,2.15
			c-1.94,0-3.61-0.4-5.02-1.2c-1.41-0.8-2.5-1.94-3.25-3.42c-0.76-1.48-1.13-3.23-1.13-5.26c0-2.2,0.45-4.09,1.35-5.67
			c0.9-1.58,2.19-2.8,3.87-3.65c1.68-0.86,3.68-1.28,5.99-1.28c2.51,0,4.68,0.5,6.51,1.5s3.23,2.43,4.21,4.29S30.2,13.18,30.2,15.76
			z"/>
	</g>
</g>
</svg>
